<svg xmlns="http://www.w3.org/2000/svg" xmlns:xlink="http://www.w3.org/1999/xlink" width="30.442" height="30.442" viewBox="0 0 30.442 30.442">
  <defs>
    <clipPath id="clip-path">
      <rect id="Rectangle_256" data-name="Rectangle 256" width="30.442" height="30.442" transform="translate(0 0)" fill="#11465b"/>
    </clipPath>
  </defs>
  <g id="Groupe_256" data-name="Groupe 256" transform="translate(0 0)">
    <g id="Groupe_248" data-name="Groupe 248" transform="translate(0 0)" clip-path="url(#clip-path)">
      <path id="Tracé_100" data-name="Tracé 100" d="M25.829,0A15.1,15.1,0,0,0,17.8,2.3V.892a.892.892,0,0,0-1.784,0v3.13a.892.892,0,0,0,1.45.7,13.231,13.231,0,0,1,8.361-2.934,13.409,13.409,0,0,1,10.7,21.524.892.892,0,0,0,1.426,1.071A15.193,15.193,0,0,0,25.829,0" transform="translate(-10.608 0)" fill="#11465b"/>
      <path id="Tracé_101" data-name="Tracé 101" d="M24.526,36.807a.891.891,0,0,0-.944.108,13.23,13.23,0,0,1-8.361,2.934,13.409,13.409,0,0,1-10.7-21.524.892.892,0,1,0-1.426-1.071A15.193,15.193,0,0,0,15.221,41.632a15.1,15.1,0,0,0,8.027-2.3v1.4a.892.892,0,1,0,1.784,0v-3.13a.892.892,0,0,0-.506-.8" transform="translate(0 -11.19)" fill="#11465b"/>
      <path id="Tracé_102" data-name="Tracé 102" d="M29.327,33.869a.892.892,0,0,0,.892-.892V30.292a9.645,9.645,0,0,0,4.6-.965c1.709-.975,2.539-2.718,2.539-5.327,0-4.183-4.689-10.286-7.376-13.155a.892.892,0,0,0-1.3,0C26.022,13.677,21.3,19.8,21.3,24c0,2.609.831,4.352,2.539,5.327a9.645,9.645,0,0,0,4.6.965v2.686a.892.892,0,0,0,.892.892m-4.6-6.092c-.7-.4-1.64-1.231-1.64-3.778,0-3.679,4.531-9.237,6.246-11.21,2.2,2.518,6.239,7.832,6.239,11.21,0,2.547-.936,3.376-1.64,3.778a8.262,8.262,0,0,1-3.711.73V26.153l3.306-3.306a.892.892,0,0,0-1.261-1.261L30.219,23.63V20.8l1.522-1.522a.892.892,0,0,0-1.261-1.261l-1.153,1.153-1.153-1.153a.892.892,0,1,0-1.261,1.261L28.435,20.8V23.63L26.39,21.585a.892.892,0,0,0-1.261,1.261l3.306,3.306v2.355a8.262,8.262,0,0,1-3.711-.73" transform="translate(-14.105 -6.995)" fill="#11465b"/>
    </g>
  </g>
</svg>
