<svg xmlns="http://www.w3.org/2000/svg" xmlns:xlink="http://www.w3.org/1999/xlink" width="33.172" height="27.318" viewBox="0 0 33.172 27.318">
  <defs>
    <clipPath id="clip-path">
      <rect id="Rectangle_250" data-name="Rectangle 250" width="33.172" height="27.318" fill="#11465b"/>
    </clipPath>
  </defs>
  <g id="Groupe_250" data-name="Groupe 250" transform="translate(0 0)">
    <g id="Groupe_236" data-name="Groupe 236" transform="translate(0 0)" clip-path="url(#clip-path)">
      <path id="Tracé_89" data-name="Tracé 89" d="M27.318,10.732V0H25.367V15.61H21.878a4.227,4.227,0,0,0-2.7-.976h-.64V9A8.032,8.032,0,0,0,10.516.975H2.927v9.756H0V24.391H3.055a3.9,3.9,0,0,0,7.548,0h2.208a3.9,3.9,0,0,0,7.548,0h3.056V21.464h1.951v2.927h7.805V10.732Zm-22.44-7.8h5.637A6.077,6.077,0,0,1,16.586,9v4.53l-3.58-2.984,1.465-2.2L12.847,7.264,10.41,10.921l4.457,3.714h-5.6l-2.927-3.9H4.878Zm1.951,22.44a1.951,1.951,0,1,1,1.951-1.951,1.952,1.952,0,0,1-1.951,1.951m9.756,0a1.951,1.951,0,1,1,1.951-1.951,1.952,1.952,0,0,1-1.951,1.951m4.878-2.927h-1.1a3.9,3.9,0,0,0-7.549,0H10.6a3.9,3.9,0,0,0-7.549,0h-1.1V12.683H5.366l2.927,3.9H19.177a2.29,2.29,0,0,1,2.287,2.288Zm1.951-2.927v-.639a4.234,4.234,0,0,0-.211-1.312h2.162v1.951Zm7.805,2.927h-3.9v-3.9h.975v2.016h1.951V18.537h.976Zm-3.9-5.854v-3.9h.975v1.951h1.951V12.683h.976v3.9Z" transform="translate(0 0)" fill="#11465b"/>
    </g>
  </g>
</svg>
 