<svg xmlns="http://www.w3.org/2000/svg" xmlns:xlink="http://www.w3.org/1999/xlink" width="30.586" height="30.58" viewBox="0 0 30.586 30.58">
  <defs>
    <clipPath id="clip-path">
      <rect id="Rectangle_251" data-name="Rectangle 251" width="30.586" height="30.58" transform="translate(0 0)" fill="#11465b"/>
    </clipPath>
  </defs>
  <g id="Groupe_251" data-name="Groupe 251" transform="translate(0 0)">
    <g id="Groupe_238" data-name="Groupe 238" transform="translate(0 0)" clip-path="url(#clip-path)">
      <path id="Tracé_90" data-name="Tracé 90" d="M30.057,11.4a.9.9,0,1,0-1.731.457A13.489,13.489,0,1,1,1.794,15.3C1.653,5.8,11.88-.961,20.56,2.886a3.626,3.626,0,0,0,1.474,3.779L24.271,8.2A.894.894,0,0,0,25.4,8.111l1.2.822A.9.9,0,1,0,27.61,7.458l-1.18-.811,1.251-1.82,1.18.812a.9.9,0,0,0,1.015-1.475l-1.2-.822a.9.9,0,0,0-.317-1.087L26.126.715a3.619,3.619,0,0,0-4.744.576A15.278,15.278,0,1,0,30.057,11.4M22.58,2.659a1.828,1.828,0,0,1,2.531-.468l1.5,1.032-2.063,3-1.5-1.031a1.837,1.837,0,0,1-.468-2.532" transform="translate(0 0)" fill="#11465b"/>
      <path id="Tracé_91" data-name="Tracé 91" d="M32.141,35.661a.9.9,0,0,0,1.033-.416l6.2-10.932a.9.9,0,0,0-.779-1.337H35.413l.392-6.14a.9.9,0,0,0-1.673-.5l-6.225,11.02a.9.9,0,0,0,.78,1.336h3.187L31.5,34.748a.9.9,0,0,0,.639.913M30.22,26.9h0l3.549-6.282-.2,3.193a.9.9,0,0,0,.894.952h2.6L33.526,31l.193-3.144a.9.9,0,0,0-.894-.95Z" transform="translate(-18.36 -10.492)" fill="#11465b"/>
    </g>
  </g>
</svg>
