<svg xmlns="http://www.w3.org/2000/svg" xmlns:xlink="http://www.w3.org/1999/xlink" width="28.288" height="33.58" viewBox="0 0 28.288 33.58">
  <defs>
    <clipPath id="clip-path">
      <rect id="Rectangle_244" data-name="Rectangle 244" width="28.288" height="33.58" transform="translate(0 0)" fill="#11465b"/>
    </clipPath>
  </defs>
  <g id="Groupe_230" data-name="Groupe 230" transform="translate(0 0)">
    <g id="Groupe_229" data-name="Groupe 229" transform="translate(0 0)" clip-path="url(#clip-path)">
      <path id="Tracé_83" data-name="Tracé 83" d="M15.384,0a12.916,12.916,0,0,0-12.9,12.9c0,.419.02.839.06,1.253-1.219,1.367-3.565,4.4-2.048,6.073a8.75,8.75,0,0,0,2.23,1.423l0,1.272a7.608,7.608,0,0,0,1.737,4.854A6.393,6.393,0,0,0,9.5,30.064h0l1.911.063v2.5a.957.957,0,0,0,1.914,0V29.2a.952.952,0,0,0-.925-.957L9.533,28.15c-3.216,0-4.9-2.628-4.9-5.224l.007-1.934a.986.986,0,0,0-.018-.19.957.957,0,0,0-.771-.755,7.578,7.578,0,0,1-1.924-1.083c-.1-.245.272-1.664,2.311-3.829a.956.956,0,0,0,.252-.781A11.179,11.179,0,0,1,4.4,12.9a10.988,10.988,0,1,1,18.264,8.23.954.954,0,0,0-.324.717l-.008,10.71a.957.957,0,1,0,1.914,0l.008-10.288A12.9,12.9,0,0,0,15.384,0" transform="translate(0 0)" fill="#11465b"/>
      <path id="Tracé_84" data-name="Tracé 84" d="M27.974,14.328a7.762,7.762,0,0,0-7.756,7.75.957.957,0,1,0,1.914,0,5.841,5.841,0,0,1,11.681,0,5.652,5.652,0,0,1-1.986,4.412,4.169,4.169,0,0,1-3.634.816c-2.551-.568-2.749-3.179-2.749-3.966a2.851,2.851,0,0,1,2.728-2.875.917.917,0,0,0,.112.006,1.377,1.377,0,0,1,0,2.754.957.957,0,1,0,0,1.914,3.291,3.291,0,0,0,.085-6.582.938.938,0,0,0-.127-.008,4.757,4.757,0,0,0-4.712,4.79c0,2.363,1.116,5.137,4.248,5.834a6.564,6.564,0,0,0,1.426.159,6.048,6.048,0,0,0,3.821-1.35,7.579,7.579,0,0,0,2.7-5.905,7.76,7.76,0,0,0-7.754-7.749" transform="translate(-12.556 -8.898)" fill="#11465b"/>
    </g>
  </g>
</svg>
