<svg xmlns="http://www.w3.org/2000/svg" xmlns:xlink="http://www.w3.org/1999/xlink" width="29.713" height="29.713" viewBox="0 0 29.713 29.713">
  <defs>
    <clipPath id="clip-path">
      <rect id="Rectangle_254" data-name="Rectangle 254" width="29.713" height="29.713" fill="#11465b"/>
    </clipPath>
  </defs>
  <g id="Groupe_254" data-name="Groupe 254" transform="translate(0 0)">
    <g id="Groupe_244" data-name="Groupe 244" transform="translate(0 0)" clip-path="url(#clip-path)">
      <path id="Tracé_94" data-name="Tracé 94" d="M27.036,23.343a14.792,14.792,0,0,0,0-16.973l.983-.983a2.612,2.612,0,1,0-3.693-3.693l-.983.983a14.793,14.793,0,0,0-16.974,0l-.983-.983A2.612,2.612,0,0,0,1.694,5.387l.983.983a14.792,14.792,0,0,0,0,16.973l-.983.983a2.611,2.611,0,0,0,3.693,3.693l.983-.983a14.794,14.794,0,0,0,16.974,0l.983.983a2.612,2.612,0,0,0,3.693-3.693Zm-2.315.147-3.746-3.746a7.818,7.818,0,0,0,0-9.775l3.746-3.746a13.089,13.089,0,0,1,0,17.267m-5.558-4.327,0,.005a6.084,6.084,0,0,1-8.6,0l0-.006-.005,0a6.084,6.084,0,0,1,0-8.6l0,0,0-.005a6.084,6.084,0,0,1,8.6,0l0,.005,0,0a6.084,6.084,0,0,1,0,8.6l0,0M25.557,2.925a.87.87,0,0,1,1.231,1.231L25.947,5a14.758,14.758,0,0,0-1.231-1.231ZM23.49,4.992,19.744,8.738a7.817,7.817,0,0,0-9.775,0L6.223,4.992a13.089,13.089,0,0,1,17.267,0M2.925,4.156A.87.87,0,1,1,4.156,2.925L5,3.766A14.753,14.753,0,0,0,3.766,5ZM4.992,6.223,8.738,9.969a7.817,7.817,0,0,0,0,9.774L4.992,23.49a13.089,13.089,0,0,1,0-17.267M4.156,26.788a.87.87,0,0,1-1.231-1.231l.842-.842A14.754,14.754,0,0,0,5,25.947Zm2.067-2.068,3.746-3.746a7.818,7.818,0,0,0,9.775,0l3.746,3.746a13.089,13.089,0,0,1-17.267,0Zm19.95,2.323a.866.866,0,0,1-.616-.255l-.842-.842a14.758,14.758,0,0,0,1.231-1.231l.841.841a.871.871,0,0,1-.616,1.486Z" transform="translate(0 0)" fill="#11465b"/>
    </g>
  </g>
</svg>
