<svg id="Groupe_350" data-name="Groupe 350" xmlns="http://www.w3.org/2000/svg" xmlns:xlink="http://www.w3.org/1999/xlink" width="34.246" height="34.246" viewBox="0 0 34.246 34.246">
  <defs>
    <clipPath id="clip-path">
      <rect id="Rectangle_334" data-name="Rectangle 334" width="34.246" height="34.246" fill="#10465b"/>
    </clipPath>
  </defs>
  <g id="Groupe_354" data-name="Groupe 354" clip-path="url(#clip-path)">
    <g id="Groupe_353" data-name="Groupe 353">
      <g id="Groupe_352" data-name="Groupe 352" clip-path="url(#clip-path)">
        <g id="Groupe_351" data-name="Groupe 351">
          <g id="Groupe_350-2" data-name="Groupe 350" clip-path="url(#clip-path)">
            <path id="Tracé_171" data-name="Tracé 171" d="M34.246,17.122A17.123,17.123,0,1,1,17.123,0,17.123,17.123,0,0,1,34.246,17.122M20.939,32.135a15.519,15.519,0,1,0-7.631,0l-1.24-.6a10.409,10.409,0,1,1,10.111,0ZM13.422,31.11l6.93,0a5.53,5.53,0,0,0-.038-11.05c-2.068-.106-4.227.083-6.3,0a.8.8,0,0,1,.011-1.585l4.869-.029,1.919-4.611-.046-.072-7.057-.007A5.535,5.535,0,0,0,14.2,24.81c1.989.088,4.042-.069,6.038,0a.8.8,0,0,1-.048,1.585l-4.863.015Z" transform="translate(0 0.001)" fill="#10465b"/>
            <path id="Tracé_172" data-name="Tracé 172" d="M410,190.8c.406.088.278.681.378,1.008.017.054-.022.067.076.055l.876-2.315.717.115.153,2.618c-.489-.119-.679.032-.611-.6l-.4-.065c-.14.023-.123.447-.228.473a2.861,2.861,0,0,0-1.131-.035l-.055-.061c-.06-.2,0-.767-.175-.888-.074-.053-.293-.068-.323.027l.073.963-.572.021-.225-2.527c.432.02,1.1-.229,1.462.075a.862.862,0,0,1,.14.9c-.051.1-.161.139-.159.239m-.427-.236c.119-.365.082-.646-.371-.561l.038.608Zm2.059.6v-1.006c-.064.01-.068.074-.087.122a6.51,6.51,0,0,0-.256.846c0,.089.009.043.058.056.066.018.259.068.284-.018" transform="translate(-393.05 -182.314)" fill="#10465b"/>
            <path id="Tracé_173" data-name="Tracé 173" d="M661.455,190.633c.1.516-.537.685-.7,1.1l-.427-.474c.164-.345.944-.59.427-1.006l-.721.682-.4-.469,1.877-1.685c.3.406,1.1.9.718,1.469a.785.785,0,0,1-.776.382m.1-1.1-.434.4c.233.531.956-.083.434-.4" transform="translate(-634.595 -181.615)" fill="#10465b"/>
            <path id="Tracé_174" data-name="Tracé 174" d="M377.04,88.316c.533.1.288.841.569,1.177l-.679.072c-.111-.317.011-1.111-.538-.885l.1.968-.553.111-.38-2.544c.48.011,1.344-.4,1.614.189a.754.754,0,0,1-.133.911M376.2,87.6c.078.156-.006.616.2.606.262-.012.284-.214.249-.433-.041-.252-.258-.224-.453-.173" transform="translate(-361.302 -83.779)" fill="#10465b"/>
            <path id="Tracé_175" data-name="Tracé 175" d="M238.155,273.552c.292-.358.594-.8,1.111-.592a7.953,7.953,0,0,1,1.265,1.051c.278.4-.053.762-.3,1.062-.055.066-.336.407-.392.4l-1.906-1.591c-.031-.051.18-.269.227-.326m.694-.046c-.048.014-.208.154-.163.221.363.265.677.594,1.029.871.049.039.146.131.208.1a.282.282,0,0,0,.039-.421c-.048-.061-.834-.718-.89-.742a.277.277,0,0,0-.223-.028" transform="translate(-228.893 -262.545)" fill="#10465b"/>
            <path id="Tracé_176" data-name="Tracé 176" d="M588.737,126.908a.875.875,0,0,1,.915.945,7.727,7.727,0,0,1-.769,1.395.7.7,0,0,1-1.018.106.663.663,0,0,1-.4-.762,7.689,7.689,0,0,1,.788-1.451.705.705,0,0,1,.48-.233m.117.523c-.079.015-.107.062-.151.117a8.276,8.276,0,0,0-.626,1.083c-.124.32.1.487.331.255a10.794,10.794,0,0,0,.654-1.13c.06-.19.03-.371-.208-.325" transform="translate(-565.153 -122.09)" fill="#10465b"/>
            <path id="Tracé_177" data-name="Tracé 177" d="M629.974,151.542l.49.394-1.207,1.49a.207.207,0,0,0,.189.337c.22-.05,1.08-1.345,1.325-1.56.088-.044.406.273.491.344l-1.27,1.575a.766.766,0,0,1-1.139-.189.651.651,0,0,1-.088-.848,12.514,12.514,0,0,1,1.171-1.451.154.154,0,0,0,.038-.093" transform="translate(-604.783 -145.789)" fill="#10465b"/>
            <path id="Tracé_178" data-name="Tracé 178" d="M280.117,228.078l1.137,1.577.136.058c.209-.031.264-.2.14-.372l-1.093-1.49c-.016-.059.316-.3.383-.344.033-.021.051-.066.1-.02l1.177,1.633c.333.584-.5,1.3-1.053,1.091-.414-.156-1.059-1.4-1.411-1.743-.039-.109.461-.409.488-.391" transform="translate(-269.012 -218.832)" fill="#10465b"/>
            <path id="Tracé_179" data-name="Tracé 179" d="M321.99,94.533c.127.55.367,1.09.513,1.633.121.452.166.767-.31,1.018a.765.765,0,0,1-1.158-.309,12.9,12.9,0,0,1-.545-1.695.579.579,0,0,1-.02-.169l.485-.169.068.032.569,1.785c.111.278.434.207.4-.09l-.568-1.863Z" transform="translate(-308.303 -90.944)" fill="#10465b"/>
            <path id="Tracé_180" data-name="Tracé 180" d="M125.035,250.951l-1.692-.965.245-.529a.377.377,0,0,1,.169.058,10.643,10.643,0,0,1,1.745,1.1.926.926,0,0,1-.323,1.158.575.575,0,0,1-.589.057,12.151,12.151,0,0,1-1.683-.936c-.03-.02-.089-.054-.092-.088.065-.091.216-.474.312-.476l1.72.981a.218.218,0,0,0,.188-.363" transform="translate(-118.154 -239.987)" fill="#10465b"/>
            <path id="Tracé_181" data-name="Tracé 181" d="M542.679,103.668c.4-.043,1.037.259,1.029.727a1.91,1.91,0,0,1-.117.453c-.077.138-.422-.1-.546-.124-.064-.092.063-.252.062-.364a.206.206,0,0,0-.377-.107c-.108.383-.417.883-.49,1.256-.028.143-.034.273.133.307.33.067.282-.436.446-.45l.5.209c-.1.28-.231.649-.558.725-.443.1-1.158-.186-1.139-.718a8.208,8.208,0,0,1,.559-1.57.687.687,0,0,1,.493-.344" transform="translate(-521.066 -99.728)" fill="#10465b"/>
            <path id="Tracé_182" data-name="Tracé 182" d="M107.607,310.989a1.774,1.774,0,0,1-.17.532c-.094.1-.358-.06-.489-.036l-.174.45.418.215L107,312.7l-2.192-1.422.28-.663Zm-1.215.683c-.021-.1.142-.249.038-.323l-.987-.208.7.424Z" transform="translate(-100.828 -298.82)" fill="#10465b"/>
            <path id="Tracé_183" data-name="Tracé 183" d="M533.1,224.613c-.079.056-.413-.231-.514-.264l.132-.469-.336-.238-.362.354-.476-.275,1.766-1.905a4.891,4.891,0,0,1,.551.312.109.109,0,0,1,.037.11Zm-.151-1.176.38-.987-.682.816Z" transform="translate(-511.361 -213.395)" fill="#10465b"/>
            <path id="Tracé_184" data-name="Tracé 184" d="M452.856,83.083c-.231.448.394.579.636.846a.827.827,0,0,1-.475,1.348c-.566.046-1-.293-.892-.893.035-.19.411,0,.569-.057.011.116-.05.207,0,.324a.216.216,0,0,0,.424-.078c.017-.418-.792-.515-.872-1.1a.757.757,0,1,1,1.5-.051l-.491.03-.119-.336a.252.252,0,0,0-.275-.03" transform="translate(-434.944 -79.447)" fill="#10465b"/>
            <path id="Tracé_185" data-name="Tracé 185" d="M709.783,260.464a.79.79,0,0,1,.919.774.681.681,0,0,1-.492.643l-.227-.422c0-.1.331-.176.184-.409-.091-.143-.363-.06-.4.115-.045.2-.008.525-.049.748a.821.821,0,0,1-1.342.438.753.753,0,0,1,.283-1.31l.264.455c-.227.144-.464.312-.163.548.491-.051.359-.466.4-.806a.829.829,0,0,1,.631-.774" transform="translate(-681.223 -250.565)" fill="#10465b"/>
            <path id="Tracé_186" data-name="Tracé 186" d="M90.9,355.928l-.078.53c-.222-.066-.581.076-.381.328.266.336.8-.56,1.094-.621.37-.076.983.106,1.036.541.087.707-.347,1.2-1.064.969l.115-.569c.639.315.646-.591.063-.335-.248.109-.431.56-.812.63-1.342.248-1.185-1.734.028-1.472" transform="translate(-86.51 -342.393)" fill="#10465b"/>
            <path id="Tracé_187" data-name="Tracé 187" d="M191.277,169.3c-.066.115.208.334.279.411l.536-.49.355.358-.528.5.351.389.577-.49.361.361c-.332.21-.629.638-.93.855-.034.024-.087.08-.133.059l-1.664-1.831c-.038-.109.049-.085.109-.143a10.4,10.4,0,0,1,.854-.782l.359.363Z" transform="translate(-183.24 -162.103)" fill="#10465b"/>
            <path id="Tracé_188" data-name="Tracé 188" d="M499.359,88.759l-.137.489-.736-.149-.076.456.722.152-.137.491-.662-.131-.143.466c-.011.051.021.061.058.078.111.052.7.113.733.16l-.114.493-1.329-.284.474-2.451c.036-.052.1-.037.148-.034.363.025.827.219,1.2.265" transform="translate(-478.648 -85.13)" fill="#10465b"/>
            <path id="Tracé_189" data-name="Tracé 189" d="M742.48,351.613l.266,1.323-.49.078-.154-.72-.449.134.144.7-.49.117-.153-.72-.527.116.146.791-.491.117-.288-1.369Z" transform="translate(-711.901 -338.264)" fill="#10465b"/>
            <path id="Tracé_190" data-name="Tracé 190" d="M273.917,113.536l.187.433-.677.383.186.4.718-.3.193.452-.629.3.23.49.718-.341.214.438-1.236.619-1.153-2.25Z" transform="translate(-262.317 -109.226)" fill="#10465b"/>
            <path id="Tracé_191" data-name="Tracé 191" d="M509.5,196.729l-.3,1.706.872-1.464.569.192c-.187.234-1.29,2.179-1.421,2.183a5.868,5.868,0,0,1-.565-.2c-.038-.021-.068-.032-.062-.085l.34-2.528Z" transform="translate(-489.283 -189.076)" fill="#10465b"/>
            <path id="Tracé_192" data-name="Tracé 192" d="M153.435,203.337l-1.1-1.318c-.025-.092.278-.383.356-.466l1.6,1.974c.034.065-.193.335-.25.4s-.152.206-.265.156l-2.2-1.145c-.007-.032.292-.47.389-.429Z" transform="translate(-145.822 -193.902)" fill="#10465b"/>
            <path id="Tracé_193" data-name="Tracé 193" d="M228.9,136.665c.1-.01.246.317.314.394l-.361.246,0,.078L229.939,139l-.438.358-1.209-1.665-.343.221-.285-.365c-.01-.056.042-.074.074-.1a12.637,12.637,0,0,1,1.162-.776" transform="translate(-219.021 -131.477)" fill="#10465b"/>
            <path id="Tracé_194" data-name="Tracé 194" d="M354.982,195.573l.114.491c-.035.04-.463.018-.416.206l.571,1.862-.571.174-.589-1.9-.068-.032-.4.107-.118-.47Z" transform="translate(-340.081 -188.149)" fill="#10465b"/>
            <path id="Tracé_195" data-name="Tracé 195" d="M730.824,300.533a.483.483,0,0,0,.036.172,9.829,9.829,0,0,1,.45,1.147c.035.207-.288.223-.445.273l-.177-.417-1.877.707-.226-.551,1.892-.741-.146-.436Z" transform="translate(-700.926 -289.124)" fill="#10465b"/>
            <path id="Tracé_196" data-name="Tracé 196" d="M591.493,270.591c.119-.031.374.322.429.431l-1.5,1.274c-.054.106.345.438.4.555l-.358.348-.852-1Z" transform="translate(-567.225 -260.317)" fill="#10465b"/>
            <rect id="Rectangle_330" data-name="Rectangle 330" width="2.569" height="0.622" transform="translate(21.745 11.346) rotate(-48.819)" fill="#10465b"/>
            <rect id="Rectangle_331" data-name="Rectangle 331" width="2.585" height="0.637" transform="matrix(0.821, -0.571, 0.571, 0.821, 26.202, 10.242)" fill="#10465b"/>
          </g>
        </g>
      </g>
    </g>
  </g>
</svg>
