<svg xmlns="http://www.w3.org/2000/svg" width="30" height="30" viewBox="0 0 30 30">
  <g id="Groupe_358" data-name="Groupe 358" transform="translate(0.25 0.25)">
    <g id="Groupe_359" data-name="Groupe 359">
      <path id="Tracé_197" data-name="Tracé 197" d="M28.75,28h-.188V.75a.75.75,0,0,0-1.5,0V3.465H21.79V.75a.75.75,0,0,0-1.5,0V3.166L14.75,8.119,9.211,3.166V.75a.75.75,0,0,0-1.5,0V3.465H2.438V.75a.75.75,0,1,0-1.5,0V28H.75a.75.75,0,0,0,0,1.5H2.628a.75.75,0,0,0,0-1.5h-.19V25.185H7.711V28H7.522a.75.75,0,0,0,0,1.5H9.4a.75.75,0,0,0,0-1.5H9.211V26.334L14.75,21.38l5.54,4.954V28H20.1a.75.75,0,0,0,0,1.5h1.877a.75.75,0,1,0,0-1.5H21.79V25.185h5.272V28h-.189a.75.75,0,0,0,0,1.5H28.75a.75.75,0,0,0,0-1.5M2.438,11.7H7.711v5.239H2.438Zm19.352,0h5.272v5.239H21.79Zm5.272-1.5H21.79V4.965h5.272ZM20.29,5.179v7.894L15.876,9.126Zm-.375,9.571L14.75,19.369,9.586,14.75l5.164-4.617Zm-10.7-1.677V5.179l4.414,3.947ZM7.715,10.2H2.438V4.965H7.715ZM2.438,23.685V18.444H7.711v5.241Zm6.773.638v-7.9l4.415,3.949Zm11.079-7.9v7.9l-4.415-3.948Zm1.5,7.259V18.444h5.272v5.241Z" fill="#11465b" stroke="#10465b" stroke-width="0.5"/>
    </g>
  </g>
</svg>
